<?xml version="1.0" encoding="UTF-8"?>
<!DOCTYPE svg PUBLIC "-//W3C//DTD SVG 1.1//EN" "http://www.w3.org/Graphics/SVG/1.1/DTD/svg11.dtd">
<!-- Creator: CorelDRAW X7 -->
<svg xmlns="http://www.w3.org/2000/svg" xml:space="preserve" width="8.5in" height="9.68078in" version="1.1" style="shape-rendering:geometricPrecision; text-rendering:geometricPrecision; image-rendering:optimizeQuality; fill-rule:evenodd; clip-rule:evenodd"
viewBox="0 0 8500 9681"
 xmlns:xlink="http://www.w3.org/1999/xlink">
 <defs>
  <style type="text/css">
   <![CDATA[
    .fil0 {fill:none}
    .fil6 {fill:white;fill-rule:nonzero}
    .fil9 {fill:white;fill-rule:nonzero}
    .fil2 {fill:#237291;fill-rule:nonzero}
    .fil8 {fill:white;fill-rule:nonzero}
    .fil7 {fill:white;fill-rule:nonzero}
    .fil5 {fill:#CD0C93;fill-rule:nonzero}
    .fil3 {fill:#E66736;fill-rule:nonzero}
    .fil4 {fill:#E8E8E8;fill-rule:nonzero}
    .fil1 {fill:url(#id0);fill-rule:nonzero}
   ]]>
  </style>
  <radialGradient id="id0" gradientUnits="userSpaceOnUse" gradientTransform="matrix(0.777722 -0 -0 0.777722 943 1134)" cx="4241.6" cy="5100.9" r="2400.17" fx="4241.6" fy="5100.9">
   <stop offset="0" style="stop-opacity:1; stop-color:#075D7C"/>
   <stop offset="1" style="stop-opacity:1; stop-color:#247493"/>
  </radialGradient>
 </defs>
 <g id="Layer_x0020_1">
  <metadata id="CorelCorpID_0Corel-Layer"/>
  <g id="_593970952">
   <rect class="fil0" width="8500" height="9681"/>
   <g>
    <g>
     <path class="fil1" d="M4242 4630c0,0 -676,-1033 -2401,-450 0,0 1311,251 2401,2020 1090,-1769 2400,-2020 2400,-2020 -1724,-583 -2400,450 -2400,450z"/>
    </g>
    <g>
     <path class="fil2" d="M4780 3653c0,298 -241,539 -538,539 -298,0 -539,-241 -539,-539 0,-297 241,-538 539,-538 297,0 538,241 538,538z"/>
    </g>
    <path class="fil3" d="M4244 3024c330,0 597,268 597,598 0,1 0,3 0,4 149,-220 235,-504 60,-812 -163,-287 -502,-808 -386,-1259 0,0 -568,138 -575,822 0,0 -116,-124 -65,-378 0,0 -657,651 -219,1519 49,-280 294,-494 588,-494z"/>
    <g>
     <path class="fil4" d="M4239 2225c0,0 -416,745 0,739 112,-1 305,-119 142,-424 -41,-76 -131,-206 -142,-315z"/>
    </g>
    <g>
     <path class="fil5" d="M1278 5381c0,0 -17,-44 -47,-127 -7,-22 -15,-45 -23,-71 -9,-26 -19,-55 -27,-86 -8,-31 -17,-64 -27,-100 -8,-36 -17,-74 -26,-115 -33,-163 -64,-363 -65,-597 0,-29 0,-58 0,-88 0,-15 0,-30 0,-45 1,-15 2,-31 3,-46 3,-62 6,-127 14,-191 3,-33 6,-66 11,-99 5,-33 11,-67 16,-101 3,-17 5,-34 8,-51 4,-17 8,-34 11,-51 8,-35 15,-70 23,-105 9,-35 18,-70 28,-105 5,-18 9,-36 15,-54 5,-17 11,-35 17,-53 5,-18 11,-36 17,-54 6,-18 11,-36 18,-54 14,-35 27,-71 41,-108 58,-144 129,-289 212,-432 170,-284 390,-562 667,-797 137,-118 287,-227 447,-323 159,-96 330,-180 509,-246 178,-67 364,-118 554,-153l72 -13c23,-4 48,-6 71,-10 48,-5 96,-13 145,-16l72 -6c24,-1 48,-4 72,-4l148 -4 141 4c24,0 49,3 73,4l73 6 37 3 36 5 72 9c24,3 48,5 72,10l71 13c190,35 376,86 554,153 45,18 89,35 133,53 43,20 86,40 129,59 42,22 84,44 126,65 41,22 81,47 121,70 160,97 310,206 447,324 276,235 496,513 665,798 84,143 154,288 212,432 14,37 27,73 41,108 13,36 23,73 35,108 6,18 11,36 17,54 5,17 10,35 15,53 9,35 18,71 28,105 7,36 14,70 22,105 3,17 7,34 11,51 2,17 5,34 8,51 5,34 11,68 16,101 5,33 8,66 11,99 14,130 17,254 17,370l0 22c-1,8 -1,15 -1,22 -1,14 -1,28 -2,42 -1,28 -3,56 -4,82 -5,55 -8,107 -15,157 -3,25 -6,49 -10,73 -3,24 -6,48 -10,70 -9,45 -16,89 -25,129 -9,41 -17,79 -26,115 -10,36 -19,69 -27,100 -8,32 -18,60 -27,86 -8,26 -16,49 -23,71 -31,83 -47,127 -47,127 0,0 13,-45 39,-130 22,-86 56,-211 80,-374 7,-41 12,-84 18,-129 3,-23 5,-46 7,-70 1,-23 4,-47 6,-72 2,-25 2,-50 3,-76 1,-25 2,-51 3,-78 0,-27 -1,-54 -1,-82 0,-14 0,-28 0,-42l1 -21 -1 -21c-6,-228 -40,-485 -112,-755 -10,-33 -20,-67 -30,-101 -6,-17 -10,-35 -16,-52 -6,-17 -12,-34 -18,-51 -13,-34 -24,-69 -38,-103 -14,-34 -29,-69 -43,-103 -61,-138 -131,-277 -215,-412 -85,-135 -182,-268 -291,-394 -28,-31 -55,-63 -84,-94 -29,-31 -59,-61 -88,-92 -31,-29 -62,-58 -94,-88 -15,-15 -31,-29 -48,-43 -16,-14 -33,-28 -49,-42 -266,-222 -579,-407 -919,-533 -171,-63 -348,-112 -529,-144l-68 -12c-22,-4 -45,-6 -68,-9l-68 -9 -35 -4 -34 -2 -68 -5c-23,-2 -44,-5 -69,-5l-141 -3 -137 3c-23,0 -46,3 -69,4l-69 5c-46,2 -91,10 -137,15 -23,3 -46,5 -68,9l-68 12c-181,32 -358,80 -529,143 -341,126 -653,310 -920,532 -16,14 -32,28 -49,42 -16,14 -33,28 -48,43 -32,30 -63,59 -94,88 -29,31 -59,61 -88,92 -30,30 -57,62 -85,93 -109,127 -206,259 -291,394 -84,136 -155,274 -216,412 -60,138 -107,276 -146,410 -8,34 -16,67 -25,101 -4,16 -8,33 -12,49 -4,17 -7,33 -10,50 -6,32 -13,65 -19,97 -6,32 -10,64 -15,96 -11,63 -15,125 -21,185 -2,15 -3,30 -5,45 0,15 -1,30 -2,44 -1,30 -3,59 -4,88l-6 22c-1,5 -6,13 -6,20 0,14 0,28 0,42 0,28 0,55 0,81 0,54 9,105 13,155 4,49 9,97 15,142 6,45 12,88 18,128 25,164 59,289 81,375 25,85 40,130 40,130z"/>
    </g>
    <g>
     <polygon class="fil6" points="996,9068 996,8827 1169,8827 1169,8871 1041,8871 1041,8937 1162,8937 1162,8979 1041,8979 1041,9068 "/>
     <path class="fil6" d="M1443 8949c0,62 -38,124 -123,124 -84,0 -124,-61 -124,-124 0,-63 41,-127 124,-127 83,0 124,64 123,127zm-202 1l0 0c1,39 22,82 79,82 57,0 78,-43 79,-83 1,-40 -22,-86 -79,-86 -57,0 -80,46 -79,87z"/>
     <path class="fil6" d="M1690 9068l-54 0 -70 -81 -44 0 0 81 -45 0 0 -241c38,0 76,0 114,0 57,0 87,38 87,80 0,33 -15,66 -61,75l73 82 0 4zm-168 -199l0 0 0 77 69 0c29,0 42,-19 42,-38 0,-19 -13,-39 -42,-39l-69 0z"/>
     <path class="fil6" d="M1990 9037c-25,25 -57,36 -91,36 -90,0 -128,-61 -128,-124 0,-63 41,-127 128,-127 32,0 63,13 88,37l-30 29c-16,-15 -37,-22 -58,-22 -58,0 -84,43 -83,83 0,40 23,81 83,81 21,0 44,-8 60,-24l31 31z"/>
     <polygon class="fil6" points="2179,9068 2179,8971 2061,8971 2061,9068 2016,9068 2016,8827 2061,8827 2061,8929 2179,8929 2179,8827 2224,8827 2224,9068 "/>
     <polygon class="fil6" points="2267,9068 2267,8827 2312,8827 2312,9068 "/>
     <polygon class="fil6" points="2400,8827 2400,9026 2524,9026 2524,9068 2355,9068 2355,8827 "/>
     <path class="fil6" d="M2767 8945c1,61 -36,123 -120,123 -30,0 -65,0 -94,0l0 -241c29,0 64,0 94,0 82,0 119,59 120,118zm-169 79l0 0 49 0c55,0 76,-40 75,-79 -1,-38 -23,-75 -75,-75l-49 0 0 154z"/>
     <path class="fil6" d="M3010 9068l-53 0 -71 -81 -43 0 0 81 -46 0 0 -241c39,0 77,0 115,0 57,0 86,38 86,80 0,33 -15,66 -60,75l72 82 0 4zm-167 -199l0 0 0 77 69 0c29,0 41,-19 41,-38 0,-19 -13,-39 -41,-39l-69 0z"/>
     <path class="fil6" d="M3208 9068l-180 0c0,-80 0,-161 0,-241l180 0 0 44 -135 0 0 55 130 0 0 43 -130 0 0 54 135 0 0 45z"/>
     <polygon class="fil6" points="3409,8827 3454,8827 3454,9068 3426,9068 3426,9068 3299,8905 3299,9068 3254,9068 3254,8827 3291,8827 3409,8976 "/>
     <polygon class="fil6" points="3825,9068 3786,9068 3756,8992 3731,8916 3706,8993 3676,9068 3638,9068 3550,8827 3601,8827 3657,9001 3716,8827 3745,8827 3805,9001 3860,8827 3911,8827 "/>
     <polygon class="fil6" points="3939,9068 3939,8827 3984,8827 3984,9068 "/>
     <path class="fil6" d="M4100 8868l-76 0 0 -41c69,0 128,0 198,0l0 41 -77 0 0 200 -45 0 0 -200z"/>
     <polygon class="fil6" points="4413,9068 4413,8971 4295,8971 4295,9068 4249,9068 4249,8827 4295,8827 4295,8929 4413,8929 4413,8827 4458,8827 4458,9068 "/>
     <path class="fil6" d="M4718 8885c-8,-14 -31,-27 -57,-27 -33,0 -50,14 -50,32 0,21 25,27 54,31 50,6 97,19 97,76 0,54 -48,77 -101,77 -49,0 -87,-15 -105,-59l38 -20c11,27 38,38 68,38 28,0 55,-10 55,-36 0,-23 -24,-32 -56,-35 -49,-6 -94,-19 -94,-73 0,-50 49,-70 93,-70 37,0 76,10 94,48l-36 18z"/>
     <path class="fil6" d="M4910 8997l-68 0 0 71 -45 0 0 -241c38,0 75,0 113,0 118,0 118,170 0,170zm-68 -42l0 0 68 0c58,0 58,-85 0,-85l-68 0 0 85z"/>
     <path class="fil6" d="M5208 9068l-180 0c0,-80 0,-161 0,-241l180 0 0 44 -135 0 0 55 131 0 0 43 -131 0 0 54 135 0 0 45z"/>
     <path class="fil6" d="M5414 9022l-126 0 -20 46 -49 0 108 -241 49 0 108 241 -50 0 -20 -46zm-63 -144l0 0 -44 102 89 0 -45 -102z"/>
     <path class="fil6" d="M5702 9037c-25,25 -57,36 -91,36 -90,0 -127,-61 -128,-124 0,-63 41,-127 128,-127 32,0 63,13 88,37l-30 29c-16,-15 -37,-22 -58,-22 -58,0 -84,43 -83,83 0,40 23,81 83,81 21,0 44,-8 60,-24l31 31z"/>
     <polygon class="fil6" points="5728,9068 5728,8827 5773,8827 5773,9068 "/>
     <path class="fil6" d="M5986 9022l-125 0 -21 46 -49 0 108 -241 49 0 108 241 -49 0 -21 -46zm-62 -144l0 0 -45 102 89 0 -44 -102z"/>
     <polygon class="fil6" points="6125,8827 6125,9026 6249,9026 6249,9068 6080,9068 6080,8827 "/>
     <polygon class="fil6" points="6509,8827 6554,8827 6554,9068 6526,9068 6526,9068 6399,8905 6399,9068 6354,9068 6354,8827 6391,8827 6509,8976 "/>
     <path class="fil6" d="M6775 9068l-180 0c0,-80 0,-161 0,-241l180 0 0 44 -135 0 0 55 130 0 0 43 -130 0 0 54 135 0 0 45z"/>
     <path class="fil6" d="M6989 9068l-180 0c0,-80 0,-161 0,-241l180 0 0 44 -135 0 0 55 130 0 0 43 -130 0 0 54 135 0 0 45z"/>
     <path class="fil6" d="M7236 8945c1,61 -36,123 -121,123 -29,0 -65,0 -94,0l0 -241c29,0 65,0 94,0 83,0 120,59 121,118zm-170 79l0 0 49 0c55,0 77,-40 76,-79 -1,-38 -23,-75 -76,-75l-49 0 0 154z"/>
     <path class="fil6" d="M7414 8885c-8,-14 -31,-27 -57,-27 -34,0 -50,14 -50,32 0,21 25,27 54,31 50,6 97,19 97,76 0,54 -48,77 -101,77 -50,0 -87,-15 -105,-59l38 -20c10,27 38,38 67,38 29,0 56,-10 56,-36 0,-23 -24,-32 -56,-35 -49,-6 -95,-19 -95,-73 0,-50 49,-70 94,-70 37,0 76,10 94,48l-36 18z"/>
    </g>
    <g>
     <path class="fil7" d="M1011 6897c0,-233 162,-394 376,-394 128,0 244,90 244,174 0,33 -26,54 -56,54 -32,0 -54,-18 -54,-57 0,-74 -36,-147 -139,-147 -135,0 -265,122 -265,349 0,157 109,324 282,324 120,0 194,-96 252,-191 4,-6 17,7 16,10 -72,146 -160,249 -316,249 -182,0 -340,-154 -340,-371z"/>
     <path class="fil7" d="M1970 6515l50 0 303 741 -119 0 -75 -185 -352 0 -73 185 -22 0 288 -741zm-185 535l0 0 335 0 -171 -420 -164 420z"/>
     <polygon class="fil7" points="2503,6515 2957,7093 2957,6515 2982,6515 2982,7257 2960,7257 2446,6600 2446,7257 2422,7257 2422,6574 2379,6515 "/>
     <path class="fil7" d="M3341 6515c228,0 401,148 401,376 0,228 -131,366 -359,366l-289 0 0 -742 247 0zm-148 718l0 0 190 0c157,0 260,-144 260,-355 0,-209 -145,-338 -302,-338l-148 0 0 693z"/>
     <path class="fil7" d="M3918 7233l81 0c104,0 186,-29 254,-93l0 117 -434 0 0 -742 99 0 0 718z"/>
     <path class="fil7" d="M4407 6540l0 318 252 0 0 24 -252 0 0 351 83 0c104,0 186,-29 253,-93l0 117 -434 0 0 -742 433 0 0 118c-67,-65 -149,-93 -253,-93l-82 0z"/>
     <path class="fil7" d="M4954 7233l82 0c104,0 186,-29 253,-93l0 117 -433 0 0 -742 98 0 0 718z"/>
     <polygon class="fil7" points="5346,6515 5444,6515 5444,7257 5346,7257 "/>
     <path class="fil7" d="M6152 6677c0,33 -25,54 -56,54 -32,0 -54,-18 -54,-57 0,-74 -36,-147 -139,-147 -158,0 -272,153 -272,361 0,211 125,357 272,357 62,0 124,-15 168,-54l0 -241 -134 0 0 -24 232 0 0 212c-54,90 -169,131 -287,131 -196,0 -350,-150 -350,-378 0,-228 149,-388 376,-388 129,0 244,90 244,174z"/>
     <polygon class="fil7" points="6260,7257 6260,6515 6359,6515 6359,6858 6695,6858 6695,6515 6794,6515 6794,7257 6695,7257 6695,6882 6359,6882 6359,7257 "/>
     <path class="fil7" d="M7462 6515l0 118c-65,-61 -144,-91 -241,-93l0 717 -99 0 0 -717c-97,2 -176,32 -240,93l0 -118 580 0z"/>
    </g>
    <g>
     <path class="fil8" d="M1010 8414l0 -742 434 0 0 117c-68,-64 -150,-93 -253,-93l-82 0 0 318 251 0 0 25 -251 0 0 375 -99 0z"/>
     <path class="fil8" d="M1848 7666c217,0 371,153 371,381 0,228 -154,378 -371,378 -217,0 -370,-150 -370,-378 0,-228 153,-381 370,-381zm0 25l0 0c-146,0 -272,144 -272,355 0,211 126,355 272,355 146,0 272,-144 272,-355 0,-211 -126,-355 -272,-355z"/>
     <path class="fil8" d="M2446 7672l0 501c0,187 103,230 184,230 100,0 222,-42 222,-247l0 -484 24 0 0 480c0,213 -120,277 -268,277 -106,0 -261,-31 -261,-275l0 -482 99 0z"/>
     <polygon class="fil8" points="3132,7672 3585,8249 3585,7672 3610,7672 3610,8414 3589,8414 3074,7757 3074,8414 3050,8414 3050,7730 3008,7672 "/>
     <path class="fil8" d="M4009 7672c228,0 401,147 401,375 0,228 -130,367 -358,367l-290 0 0 -742 247 0zm-148 717l0 0 191 0c157,0 259,-144 259,-355 0,-209 -145,-338 -302,-338l-148 0 0 693z"/>
     <path class="fil8" d="M4739 7672l50 0 303 741 -119 0 -75 -186 -352 0 -73 186 -23 0 289 -741zm-186 534l0 0 335 0 -170 -420 -165 420z"/>
     <path class="fil8" d="M5643 7672l0 117c-65,-61 -143,-91 -241,-93l0 718 -98 0 0 -718c-98,2 -176,32 -241,93l0 -117 580 0z"/>
     <polygon class="fil8" points="5771,7672 5870,7672 5870,8414 5771,8414 "/>
     <path class="fil8" d="M6368 7666c217,0 371,153 371,381 0,228 -154,378 -371,378 -217,0 -370,-150 -370,-378 0,-228 153,-381 370,-381zm0 25l0 0c-146,0 -271,144 -271,355 0,211 125,355 271,355 146,0 273,-144 273,-355 0,-211 -127,-355 -273,-355z"/>
     <polygon class="fil8" points="6970,7672 7424,8249 7424,7672 7448,7672 7448,8414 7427,8414 6913,7757 6913,8414 6889,8414 6889,7730 6846,7672 "/>
    </g>
    <g>
     <path class="fil9" d="M906 4921l41 184c-82,19 -165,37 -247,55l-41 -184 45 -10 31 138 57 -13 -30 -133 43 -10 30 134 56 -13 -31 -138 46 -10z"/>
     <polygon class="fil9" points="678,4629 797,4698 798,4707 699,4800 881,4778 887,4825 636,4856 630,4802 728,4710 610,4645 603,4591 854,4559 860,4607 "/>
     <path class="fil9" d="M770 4338l2 71 74 -2 1 48 -252 6c-1,-40 -3,-79 -4,-119 -3,-123 176,-128 179,-4zm-42 72l0 0 -2 -71c-1,-61 -91,-59 -89,2l2 71 89 -2z"/>
     <path class="fil9" d="M736 3894c65,5 127,50 121,138 -6,89 -72,126 -139,121 -66,-5 -130,-52 -124,-139 6,-87 76,-125 142,-120zm-14 212l0 0c42,2 88,-17 92,-77 4,-59 -39,-85 -81,-88 -42,-4 -91,17 -96,76 -4,60 43,87 85,89z"/>
     <polygon class="fil9" points="917,3551 910,3591 826,3607 743,3619 817,3660 889,3704 882,3744 616,3789 626,3737 816,3711 648,3618 653,3587 844,3558 675,3468 685,3416 "/>
     <path class="fil9" d="M1013 3196l-54 181c-81,-24 -161,-49 -242,-73l54 -181 45 13 -41 136 55 17 40 -131 42 13 -39 131 55 16 40 -136 45 14z"/>
     <path class="fil9" d="M1128 2895l-21 53 -106 37 -17 43 79 31 -18 44 -235 -94c15,-37 30,-74 45,-111 22,-55 71,-70 111,-54 32,13 59,41 50,89l109 -39 3 1zm-259 87l0 0 75 30 27 -68c11,-28 -3,-48 -21,-55 -19,-7 -43,-3 -54,25l-27 68z"/>
     <polygon class="fil9" points="1164,2821 936,2712 956,2669 1184,2778 "/>
     <polygon class="fil9" points="1092,2413 1116,2372 1336,2497 1321,2522 1322,2523 1108,2554 1256,2638 1232,2679 1012,2555 1031,2521 1229,2491 "/>
     <path class="fil9" d="M1342 2145c-23,5 -45,20 -57,38 -31,45 -16,95 26,125 34,24 83,28 119,-23 12,-16 18,-33 16,-58l-36 -26 -37 53 -35 -24 62 -89 87 61c9,37 5,72 -20,108 -55,78 -128,74 -183,36 -58,-41 -86,-115 -35,-188 19,-28 50,-48 85,-55l8 42z"/>
     <path class="fil9" d="M1632 1796c-17,-4 -43,5 -61,25 -24,26 -25,49 -11,61 16,15 38,0 62,-20 40,-34 83,-61 128,-21 41,39 26,92 -13,133 -34,38 -73,57 -120,39l12 -43c28,11 57,-2 78,-25 20,-22 31,-50 11,-69 -18,-16 -42,-4 -67,18 -40,34 -82,60 -124,22 -38,-35 -19,-87 12,-122 27,-29 62,-52 104,-39l-11 41z"/>
     <path class="fil9" d="M1911 1687l-53 48 50 55 -35 32 -171 -186c30,-27 59,-54 88,-81 91,-83 212,48 121,132zm-82 16l0 0 52 -48c45,-41 -15,-107 -60,-66l-53 48 61 66z"/>
     <path class="fil9" d="M2250 1505l-150 115c-51,-66 -102,-133 -154,-200l150 -115 29 36 -113 87 36 46 108 -83 27 35 -108 83 34 45 113 -86 28 37z"/>
     <path class="fil9" d="M2501 1302c-8,35 -30,64 -61,83 -79,51 -147,18 -183,-37 -36,-56 -36,-136 41,-185 29,-18 64,-25 99,-17l-10 43c-23,-5 -46,1 -64,13 -52,32 -49,85 -26,120 23,35 67,59 119,25 19,-11 35,-32 40,-55l45 10z"/>
     <polygon class="fil9" points="2597,1286 2475,1064 2517,1041 2638,1263 "/>
     <path class="fil9" d="M2875 1095l-120 55 0 52 -47 21 -1 -277 47 -21 208 183 -47 21 -40 -34zm-123 -111l0 0 2 117 86 -39 -88 -78z"/>
     <polygon class="fil9" points="3004,823 3073,1020 3196,978 3210,1019 3042,1078 2959,839 "/>
     <polygon class="fil9" points="3601,920 3580,820 3458,846 3479,946 3433,956 3380,709 3427,699 3449,803 3571,777 3549,673 3595,663 3647,911 "/>
     <path class="fil9" d="M3938 872l-187 22c-10,-84 -20,-168 -30,-251l188 -22 5 46 -141 16 7 58 136 -16 5 44 -136 16 7 57 141 -17 5 47z"/>
     <path class="fil9" d="M4214 811l-132 4 -21 48 -51 1 106 -255 52 -2 120 250 -52 1 -22 -47zm-71 -150l0 0 -43 109 93 -3 -50 -106z"/>
     <path class="fil9" d="M4594 874l-57 -4 -68 -89 -45 -3 -6 85 -48 -3 17 -253c40,3 80,6 120,8 59,4 88,46 85,90 -2,34 -20,68 -69,75l71 91 0 3zm-162 -219l0 0 -6 80 73 5c30,2 44,-17 46,-37 1,-20 -11,-42 -41,-43l-72 -5z"/>
     <path class="fil9" d="M4781 688l-79 -12 7 -43c72,11 133,21 205,32l-6 43 -80 -12 -32 207 -47 -8 32 -207z"/>
     <path class="fil9" d="M5161 783c-5,-16 -25,-35 -52,-41 -34,-9 -54,2 -59,20 -5,21 19,34 48,44 49,19 94,44 79,103 -13,54 -67,66 -122,53 -50,-13 -85,-38 -92,-87l43 -10c4,29 30,48 60,55 29,8 59,4 65,-23 6,-23 -16,-38 -48,-50 -48,-18 -91,-43 -78,-98 13,-50 67,-59 113,-48 38,10 75,30 84,73l-41 9z"/>
     <path class="fil9" d="M5275 1053l-24 -7 18 -32c-10,-5 -14,-13 -11,-24 10,-32 59,-15 49,17 -2,4 -1,3 -32,46z"/>
     <path class="fil9" d="M5804 1092c-27,59 -90,103 -171,66 -82,-36 -93,-111 -66,-172 27,-61 94,-104 173,-68 80,35 92,114 64,174zm-194 -86l0 0c-16,38 -14,88 40,112 55,25 94,-7 111,-45 18,-38 16,-91 -38,-116 -55,-24 -97,10 -113,49z"/>
     <polygon class="fil9" points="6107,1112 6149,1136 6023,1355 5998,1341 5998,1341 5967,1127 5882,1275 5841,1251 5966,1032 6000,1051 6030,1248 "/>
     <path class="fil9" d="M6266 1519l-155 -108c48,-69 96,-138 144,-207l156 108 -27 37 -116 -80 -34 47 113 78 -25 37 -113 -78 -32 47 116 81 -27 38z"/>
     <polygon class="fil9" points="6450,1665 6619,1476 6754,1597 6724,1632 6624,1542 6578,1594 6672,1678 6643,1711 6548,1627 6486,1696 "/>
     <polygon class="fil9" points="6869,1711 6718,1855 6808,1949 6776,1980 6653,1851 6836,1677 "/>
     <path class="fil9" d="M6988 2161l-82 -104 -51 13 -32 -40 268 -69 32 40 -126 247 -33 -41 24 -46zm78 -147l0 0 -114 31 59 73 55 -104z"/>
     <polygon class="fil9" points="7315,2397 7178,2387 7173,2379 7222,2252 7068,2351 7042,2311 7255,2175 7284,2221 7235,2346 7370,2354 7399,2400 7186,2536 7161,2496 "/>
     <path class="fil9" d="M7324 2796l-87 -168c75,-39 150,-77 225,-116l87 169 -42 21 -64 -126 -52 26 62 122 -39 20 -62 -122 -51 26 64 127 -41 21z"/>
     <path class="fil9" d="M7523 3163l-44 -124 -52 -5 -18 -48 277 22 17 49 -200 191 -18 -49 38 -36zm121 -113l0 0 -117 -8 32 88 85 -80z"/>
     <path class="fil9" d="M7733 3297l-21 -78 42 -11c19,71 35,130 54,201l-42 11 -21 -77 -202 54 -12 -46 202 -54z"/>
     <path class="fil9" d="M7680 3868l-17 -131 -51 -15 -6 -51 265 79 7 51 -236 146 -6 -52 44 -27zm142 -85l0 0 -113 -33 12 93 101 -60z"/>
     <path class="fil9" d="M7863 4225l-1 -81 43 0c1,73 2,134 4,208l-44 0 -1 -80 -209 4 -1 -48 209 -3z"/>
     <polygon class="fil9" points="7650,4446 7902,4462 7899,4509 7647,4494 "/>
     <polygon class="fil9" points="7792,4843 7694,4747 7696,4737 7816,4673 7634,4647 7640,4600 7891,4635 7883,4689 7765,4753 7861,4846 7854,4900 7604,4865 7610,4818 "/>
     <path class="fil9" d="M7539 5151l44 -184c82,20 164,40 246,59l-44 184 -45 -11 33 -138 -57 -13 -32 133 -43 -10 32 -133 -55 -14 -33 138 -46 -11z"/>
    </g>
   </g>
  </g>
 </g>
</svg>
